PathFileType	3	(X/Y/Z)	D:\Jess\Healthy\Labelled\HA12\20250414\SRRun02.trc
DataRate	CameraRate	NumFrames	NumMarkers	Units	OrigDataRate	OrigDataStartFrame	OrigNumFrames
250.0	250.0	5	37	mm	250.0	36250	2501
Frame#	Time	C7			T10			CLAV			LSHO			RSHO			LASIS			RASIS			LPSIS			RPSIS			LILCR			RILCR			LGTR			LTHI			LLTHI			LLEP			LMEP			LPSH			LLSH			LDSH			LLMAL			LMMAL			LTOE			L5TH			LHEE			RGTR			RTHI			RLTHI			RLEP			RMEP			RPSH			RLSH			RDSH			RLMAL			RMMAL			RTOE			R5TH			RHEE			
		X1	Y1	Z1	X2	Y2	Z2	X3	Y3	Z3	X4	Y4	Z4	X5	Y5	Z5	X6	Y6	Z6	X7	Y7	Z7	X8	Y8	Z8	X9	Y9	Z9	X10	Y10	Z10	X11	Y11	Z11	X12	Y12	Z12	X13	Y13	Z13	X14	Y14	Z14	X15	Y15	Z15	X16	Y16	Z16	X17	Y17	Z17	X18	Y18	Z18	X19	Y19	Z19	X20	Y20	Z20	X21	Y21	Z21	X22	Y22	Z22	X23	Y23	Z23	X24	Y24	Z24	X25	Y25	Z25	X26	Y26	Z26	X27	Y27	Z27	X28	Y28	Z28	X29	Y29	Z29	X30	Y30	Z30	X31	Y31	Z31	X32	Y32	Z32	X33	Y33	Z33	X34	Y34	Z34	X35	Y35	Z35	X36	Y36	Z36	X37	Y37	Z37	

1251	144.996	1228.377755720869	1455.333936878532	-353.3727929442989	1113.30237924709	1178.141831189969	-341.4883538140687	1352.849650345582	1316.887747991897	-378.4136831953049	1260.780555214907	1393.280858731938	-525.4190776567312	1325.377030947202	1382.287449405558	-216.051685233715	1279.720275593707	923.3172623933367	-479.8578204924564	1294.920074550387	906.2988324036369	-238.7525326841388	1082.585665897937	987.7514342384449	-357.8264576419822	1087.705036429578	986.5038322213915	-320.2063642256075	1214.053618041421	980.9184063108866	-532.0715995052593	1231.132363366607	970.7025561409948	-174.8304324228801	1257.268820480206	809.1360583012954	-536.0949183468971	1373.600498813888	730.124967547093	-464.1791975430436	1307.448180416459	638.1978480877773	-514.3115194059911	1348.772684349801	510.6737793211231	-490.3912929354996	nan	nan	nan	1386.089662615526	401.9943762418334	-429.4948443964052	1304.393013043689	297.6672414860487	-488.0637456833406	1332.98501043008	184.6310497413896	-411.643470023304	1268.378833252085	102.1900879812161	-432.7723517498649	nan	nan	nan	1420.233237191311	65.44169224442449	-417.0246022798629	1388.478666838935	45.37026546477238	-455.5251105745928	1196.281057051791	80.89300408102358	-380.8547624479725	1217.374539845442	801.4938257192858	-165.0075068080702	1298.958984953091	666.9556093607137	-261.52695087003	1172.398705037157	595.5141538127813	-180.6185950818733	1148.531210436453	483.9152853939299	-191.4141246509479	nan	nan	nan	1086.477027142647	389.1479698609289	-238.8729112185094	985.7673964662943	436.2881141046841	-176.4265856688996	863.7057058351221	350.2356339824088	-245.3506319595475	778.4304475064362	393.1452535819536	-211.6973483273099	nan	nan	nan	736.6448423888464	230.7132421092127	-198.3411290559955	696.865649513514	269.1823684884793	-166.6008277569666	738.3219779615649	449.7019777407304	-279.3087394592782	
1252	145	1228.06504551291	1453.389476325252	-354.350602828342	1112.26182748927	1176.090436595695	-342.0920181924923	1352.427544709024	1314.290751522856	-378.0168094621222	1261.81414814009	1389.556808724201	-526.3213675079073	1324.088266111272	1379.818311967368	-215.826213888815	1278.990116419124	921.1081474902031	-480.5231199076021	1294.149256780847	902.8467094798611	-239.0611484004142	1081.727780908038	985.4222798400284	-357.3436870295924	1086.812987315111	983.8735970920986	-319.7225212064324	1212.649329818255	978.7080179277015	-532.4459591142414	1230.308543348019	967.0389803612504	-174.5651016632556	1256.235356276926	806.9421625050426	-536.3736292155073	1373.267051710399	728.2622763219207	-464.2825001827493	1307.315471499604	636.3861809322285	-514.0542150965761	1349.02966567575	509.1725799484536	-489.4955867858359	nan	nan	nan	1383.843564977564	400.0553479423048	-428.0875557886217	1300.471899499359	297.2815392063339	-487.2775977849483	1325.25885600148	183.6825282475389	-410.3391890397577	1258.665910408577	102.9296249327744	-432.1371596555326	nan	nan	nan	1409.48633431852	64.88108583301091	-416.5505998362415	1377.543903443773	45.47429096142844	-455.2974292879582	1185.656381626243	81.76417672231682	-380.5014500297952	1218.22485440424	798.4570128669885	-165.3470462016234	1301.642028842641	665.9343644282527	-261.4021359035243	1176.05110199062	593.0255832765789	-180.4868315272561	1154.58794047403	481.2326134121379	-191.0242078763043	nan	nan	nan	1092.766848533979	387.0968383431338	-238.9116272840149	992.3445354383284	434.6240803095492	-176.1458851448027	869.7998228522465	350.151252587786	-245.4641151548096	784.8677740363556	393.8019661914216	-211.8129393419242	nan	nan	nan	743.2099339896345	231.5666257001558	-197.5877286489317	703.7340228381953	270.1642338997369	-165.6907630890646	744.3219697258216	450.2349305429759	-279.5024349848201	
1253	145.004	1227.823590077991	1451.640312471879	-355.3215702980166	1111.19466552263	1174.305300342557	-342.7080255666539	1352.002671414816	1311.914837538501	-377.5629994771513	1262.958639177978	1386.030746016175	-527.1259566257957	1322.802255793693	1377.515435863833	-215.5964925321734	1278.216421559741	919.1684680556891	-481.1810026967792	1293.317891405127	899.7383694154489	-239.3278647992793	1080.855961298303	983.4230601249036	-356.9546957763146	1085.907508879372	981.5864482983659	-319.3300342571824	1211.22485599743	976.7776908665512	-532.8136090797193	1229.329726630283	963.756853195832	-174.3596764519193	1255.112721035949	804.9029356188474	-536.6397150506345	1372.697434127133	726.3270542283689	-464.4165398938202	1306.862791666318	634.5752183546116	-513.8213397168631	1348.782678559292	507.5915379159967	-488.6498191060347	nan	nan	nan	1381.131774697983	398.0647334462213	-426.8366228203496	1296.056603461243	296.8585715548845	-486.5584961702923	1317.208463564312	182.8133047182125	-409.2026829013232	1248.752361057029	103.711551222324	-431.6235283481234	nan	nan	nan	1398.590075767363	64.50884027103645	-416.222261961817	1366.518491547054	45.6498970704123	-455.1418768429633	1174.923022945201	82.5699299030357	-380.2193318330953	1218.895078515768	795.739009991496	-165.6856957395789	1304.374399307528	665.1942604549588	-261.3934277692863	1179.82939642675	590.8028175582231	-180.3695441248975	1160.792877041102	478.7639114492682	-190.6833984405665	nan	nan	nan	1099.297811521159	385.216265754864	-239.0395841730577	999.1320956555069	432.966844320854	-175.894825179215	876.1938220712237	349.9038765095539	-245.644124967704	791.5583854865281	394.1076930030268	-211.9351771798417	nan	nan	nan	750.3050880863701	231.9701830357214	-197.0660083782701	711.0724593732618	270.5727591944881	-164.9508015569662	750.4328778329242	450.4223636552252	-279.59656763174	
1254	145.008	1227.633986970633	1450.087736261983	-356.2822894298625	1110.114615795771	1172.780327874838	-343.3415115317045	1351.573249730891	1309.766676558969	-377.0550190763769	1264.206062780336	1382.736553322502	-527.8213889719391	1321.503617685139	1375.401981203139	-215.3652478339828	1277.416795642194	917.5012035298229	-481.814901466754	1292.431729524771	897.018634891145	-239.5399204961015	1079.977746074025	981.7464543199083	-356.6808954371325	1084.991343943502	979.64239776332	-319.0522095860987	1209.800635466115	975.1149247400477	-533.1729104235757	1228.187707021993	960.8893897306771	-174.2136414645467	1253.939036239806	803.0238545746535	-536.8731914970069	1371.890389607526	724.2991382409973	-464.5664898127605	1306.053023096943	632.7508908182508	-513.6043834918136	1347.967705343009	505.8962119519921	-487.8695173785963	nan	nan	nan	1377.925684280901	395.9941796542593	-425.7548815648015	1291.126048013225	296.3626995592463	-485.9067383770621	1308.837845288678	181.9917555596539	-408.2346855659733	1238.642806151716	104.4982875682815	-431.2257216571237	nan	nan	nan	1387.561146047342	64.26826351623073	-416.0244518439579	1355.407162448806	45.85261076687559	-455.0516472190398	1164.079795565497	83.29984995634177	-380.0027845442701	1219.376656329352	793.3602423488072	-166.0129250977152	1307.14483925263	664.738513585788	-261.5093910288016	1183.743647754311	588.8541786411893	-180.2625064143247	1167.137101648708	476.5212764582682	-190.3907349529004	nan	nan	nan	1106.056408671013	383.5163999145538	-239.2511529768021	1006.112260886022	431.3313812312124	-175.6783681188208	882.8689859918441	349.49256239939	-245.8892671637153	798.47661714437	394.0582831723399	-212.0654000976348	nan	nan	nan	757.9083869354996	231.9195265032037	-196.7819825389427	718.8522755525356	270.4021297857088	-164.3917998810885	756.6336065131776	450.2595099522817	-279.5941238189715	
1255	145.012	1227.474772204787	1448.731158127992	-357.2292103373223	1109.036015381243	1171.505668367447	-343.9975914975689	1351.138138163444	1307.850281000108	-376.4952908018577	1265.546250633472	1379.706212194133	-528.399326141133	1320.175455541276	1373.500651460442	-215.1330966989386	1276.608767494555	916.1033475038397	-482.4086468238709	1291.497430112535	894.7239291938658	-239.6863347906422	1079.10064922204	980.3792594742205	-356.5396812957817	1084.067067784484	978.034883190688	-318.9085101130411	1208.396650267751	973.7030192346507	-533.5218562796687	1226.880565966082	958.4593139974725	-174.1238955444573	1252.748046080281	801.30556469685	-537.0570721310601	1370.844417351799	722.1589563592466	-464.7172753419077	1304.854773223015	630.9027247997034	-513.396371037457	1346.533173648351	504.0605864207268	-487.1672567820705	nan	nan	nan	1374.205194174123	393.8240083738404	-424.8483922502872	1285.670603786929	295.7661397711055	-485.320070710039	1300.156054361551	181.1916070970217	-407.4307316576428	1228.344462695212	105.2586655586921	-430.9346504170675	nan	nan	nan	1376.415807254692	64.10937430370987	-415.9395304278482	1344.21462148195	46.04677749486467	-455.0189844982484	1153.12701580457	83.94762700829956	-379.8445186428627	1219.665846610633	791.3356061733373	-166.3191454754716	1309.939746621578	664.5687447309837	-261.7548196354252	1187.80024542827	587.1872490130062	-180.1618432377225	1173.608769227499	474.5165583713277	-190.1435237328577	nan	nan	nan	1113.0266068065	382.0065664225583	-239.5393663199768	1013.26495023676	429.7306294989395	-175.5005265532333	889.8054871601099	348.9166357153053	-246.1977961774663	805.5964723026538	393.6507766898533	-212.2057308440994	nan	nan	nan	765.9968134151276	231.4147125030515	-196.7392096803993	727.0446827773533	269.6516723531348	-164.0232380195513	762.904248550493	449.7410127853935	-279.5004091076083	
